<?xml version="1.0" encoding="UTF-8"?><svg id="a" xmlns="http://www.w3.org/2000/svg" width="800" height="800" viewBox="0 0 800 800"><polygon points="-188.34 -126.53 1045.36 -126.53 1045.36 987.56 -188.34 987.56 -188.34 -126.53 -188.34 -126.53" fill="#b7a686" fill-rule="evenodd"/><path d="m617.18,477.96h201.95c19.34,0,35.16,15.82,35.16,35.16h0c0,19.34-15.82,35.17-35.16,35.17h-201.95c-19.34,0-35.16-15.82-35.16-35.17h0c0-19.34,15.82-35.16,35.16-35.16h0Z" fill="#ccc" fill-rule="evenodd"/><path d="m543.83,528.42h353.66v188.89c0,97.26-79.57,176.83-176.83,176.83h0c-97.26,0-176.83-79.57-176.83-176.83v-188.89h0Z" fill="#f1f1f1" fill-rule="evenodd"/><path d="m543.83,503.31h353.66v-85.4c0-97.26-79.57-176.83-176.83-176.83h0c-97.26,0-176.83,79.57-176.83,176.83v85.4h0Z" fill="#f1f1f1" fill-rule="evenodd"/><path d="m576.78,315.43c-20.72,28.96-32.95,64.36-32.95,102.48v39.19h134.14c17.13,0,31.15-14.02,31.15-31.15v-79.37c0-17.13-14.02-31.15-31.15-31.15h-101.19Z" fill="#2f2d22" fill-rule="evenodd"/><path d="m815.11,268.61c-8.23,7.54-19.18,12.16-31.16,12.16h-126.59c-11.97,0-22.92-4.62-31.16-12.16,27.37-17.42,59.79-27.53,94.45-27.53h0c34.67,0,67.08,10.12,94.45,27.53h0Z" fill="#ccc" fill-rule="evenodd"/><path d="m543.83,571.89h75.21c26.12,0,47.49,21.37,47.49,47.49v70.56c0,57.78-45.99,105.34-103.17,107.89-12.47-24.19-19.53-51.57-19.53-80.53v-145.42h0Z" fill="#2f2d22" fill-rule="evenodd"/><path d="m597.12,351.47h11.58c2.92,0,5.31,2.39,5.31,5.31v36.51c0,2.92-2.39,5.31-5.31,5.31h-11.58c-2.92,0-5.31-2.39-5.31-5.31v-36.51c0-2.92,2.39-5.31,5.31-5.31h0Z" fill="#fadbac" fill-rule="evenodd"/><path d="m755.93,329.61v-99.75h-2.54v96.1c.86,1.21,1.7,2.42,2.54,3.65h0Z" fill="#2f2d22" fill-rule="evenodd"/><path d="m754.66,205.21c9.03,0,16.34,7.32,16.34,16.34s-7.32,16.34-16.34,16.34-16.34-7.32-16.34-16.34,7.32-16.34,16.34-16.34h0Z" fill="#2f2d22" fill-rule="evenodd"/><path d="m753.69,318.7h0c27.12,0,49.32,22.19,49.32,49.32v20.17c0,27.12-22.19,49.32-49.32,49.32h0c-27.12,0-49.32-22.19-49.32-49.32v-20.17c0-27.12,22.19-49.32,49.32-49.32h0Z" fill="#2f2d22" fill-rule="evenodd"/><path d="m651.15,666.2c-90.98,87.27-171.26,91.82-278.02,8.42,0,0,57.05-62.81,135.54-65.6,55.63-1.98,85.71,3.97,98.52,7.61l-.06.04c1.63,24.7,22.82,37.95,38.9,40.63l5.13,8.91h0Z" fill="#f1f1f1" fill-rule="evenodd"/><path d="m651.15,666.2c-22.28,7.74-58.74-20.78-56.6-52.51,4.22.81,8.43,1.68,12.65,2.51,1.3,22.3,17.51,37.07,38.82,41.09l5.13,8.91h0Z" fill="#ccc" fill-rule="evenodd"/><path d="m690.4,636.57l-44.38,20.72c-16.09-2.68-37.27-15.92-38.9-40.63l19.55-11.7,63.74,31.6h0Z" fill="#2f2d22" fill-rule="evenodd"/><path d="m708.62,539.74h24.07c32.67,0,59.4,26.73,59.4,59.4h0c0,32.67-26.73,59.4-59.4,59.4h-24.07c-32.67,0-59.4-26.73-59.4-59.4h0c0-32.67,26.73-59.4,59.4-59.4h0Z" fill="#a4a5a4" fill-rule="evenodd"/><path d="m316.81,598.31l116.19,152.7c-2.15,7.95-.72,16.78,4.65,23.84,9.19,12.08,26.43,14.42,38.51,5.23,12.08-9.19,14.42-26.43,5.23-38.51-5.37-7.06-13.5-10.8-21.74-10.84l-116.19-152.71c4.94-11.19,3.81-24.65-4.12-35.08-10.64-13.99-29.84-17.64-44.72-9.19l4.79,2.79,18.53,8.92,2.08,7.9,2.08,7.9-4.11,7.06-4.11,7.06-7.9,2.08-7.9,2.08-18.53-8.92-2.13-1.24c.86,5.5,3.06,10.87,6.67,15.6,7.93,10.42,20.61,15.1,32.71,13.32h0Zm132.69,146.91l-3.3,5.67-3.3,5.67,1.67,6.35,1.67,6.35,5.67,3.3,5.67,3.3,6.35-1.67,6.35-1.67,3.3-5.67,3.3-5.67-1.67-6.35-1.67-6.35-5.67-3.31-5.67-3.3-6.35,1.67-6.35,1.67h0Z" fill="#25241b" fill-rule="evenodd"/></svg>