<?xml version="1.0" encoding="UTF-8"?><svg id="a" xmlns="http://www.w3.org/2000/svg" width="800" height="800" viewBox="0 0 800 800"><polygon points="-219.35 -203.73 1014.35 -203.73 1014.35 910.36 -219.35 910.36 -219.35 -203.73 -219.35 -203.73" fill="#9395b7" fill-rule="evenodd"/><path d="m71.74,230.13H-110.26c-17.43,0-31.69,14.26-31.69,31.69h0c0,17.43,14.26,31.69,31.69,31.69H71.74c17.43,0,31.69-14.26,31.69-31.69h0c0-17.43-14.26-31.69-31.69-31.69h0Z" fill="#ccc" fill-rule="evenodd"/><path d="m137.84,275.61H-180.88v170.23c0,87.65,71.71,159.36,159.36,159.36h0c87.65,0,159.36-71.71,159.36-159.36v-170.23h0Z" fill="#f1f1f1" fill-rule="evenodd"/><path d="m137.84,252.97H-180.88s0-76.96,0-76.96c0-87.65,71.71-159.36,159.36-159.36h0c87.65,0,159.36,71.71,159.36,159.36v76.96h0Z" fill="#f1f1f1" fill-rule="evenodd"/><path d="m108.15,83.65c18.67,26.1,29.69,58,29.69,92.35v35.32s-120.89,0-120.89,0c-15.44,0-28.07-12.63-28.07-28.07v-71.53c0-15.44,12.63-28.07,28.07-28.07h91.2Z" fill="#28252f" fill-rule="evenodd"/><path d="m-106.64,41.46c7.42,6.8,17.29,10.96,28.08,10.96H35.52c10.79,0,20.66-4.16,28.08-10.96C38.93,25.76,9.72,16.64-21.52,16.64h0c-31.24,0-60.46,9.12-85.12,24.81h0Z" fill="#ccc" fill-rule="evenodd"/><path d="m137.84,314.78h-67.78c-23.54,0-42.8,19.26-42.8,42.8v63.59c0,52.07,41.45,94.93,92.98,97.23,11.24-21.8,17.6-46.48,17.6-72.57v-131.05h0Z" fill="#28252f" fill-rule="evenodd"/><path d="m-28.09,646.25c-69.98,0-126.7,22.19-126.7,49.57s56.73,49.57,126.7,49.57c69.98,0,126.7-22.19,126.7-49.57,0-27.37-56.73-49.57-126.7-49.57h0Z" fill="#7e80a1" fill-rule="evenodd"/><path d="m89.82,116.13h-10.43c-2.63,0-4.78,2.15-4.78,4.78v32.9c0,2.63,2.15,4.78,4.78,4.78h10.43c2.63,0,4.78-2.15,4.78-4.78v-32.9c0-2.63-2.15-4.78-4.78-4.78h0Z" fill="#c0cafa" fill-rule="evenodd"/><path d="m41.12,399.77c81.99,78.65,154.34,82.75,250.56,7.59,0,0-51.41-56.61-122.15-59.12-50.13-1.78-77.24,3.58-88.78,6.86l.06.03c-1.47,22.26-20.56,34.2-35.06,36.61l-4.62,8.03h0Z" fill="#f1f1f1" fill-rule="evenodd"/><path d="m41.12,399.77c20.08,6.97,52.94-18.73,51.01-47.32-3.8.73-7.6,1.51-11.4,2.26-1.17,20.1-15.78,33.41-34.99,37.03l-4.62,8.03h0Z" fill="#ccc" fill-rule="evenodd"/><path d="m5.75,373.07l40,18.68c14.5-2.42,33.59-14.35,35.06-36.61l-17.61-10.54-57.44,28.48h0Z" fill="#28252f" fill-rule="evenodd"/><path d="m-10.67,285.8h-21.7c-29.44,0-53.53,24.09-53.53,53.53h0c0,29.44,24.09,53.53,53.53,53.53H-10.67c29.44,0,53.53-24.09,53.53-53.53h0c0-29.44-24.09-53.53-53.53-53.53h0Z" fill="#a5a4a4" fill-rule="evenodd"/><path d="m342.44,338.59c10.91,1.61,22.33-2.61,29.48-12.01,3.25-4.27,5.23-9.11,6.01-14.06l-1.92,1.12-16.7,8.04-7.12-1.88-7.12-1.88-3.71-6.36-3.71-6.36,1.88-7.12,1.88-7.12,16.7-8.04,4.31-2.51c-13.41-7.61-30.71-4.32-40.3,8.29-7.15,9.39-8.17,21.53-3.71,31.61l-104.71,137.62c-7.42.04-14.75,3.4-19.59,9.77-8.28,10.89-6.17,26.43,4.71,34.71,10.89,8.28,26.43,6.17,34.71-4.71,4.84-6.37,6.13-14.32,4.19-21.49l104.71-137.62h0Zm-119.58,132.4l-5.72-1.51-5.72-1.51-5.11,2.98-5.11,2.98-1.51,5.72-1.51,5.72,2.98,5.11,2.98,5.11,5.72,1.51,5.72,1.51,5.11-2.98,5.11-2.98,1.51-5.72,1.51-5.72-2.98-5.11-2.98-5.11h0Z" fill="#211e25" fill-rule="evenodd"/><path d="m400.66,585.35c13.6-.32,25,10.54,25.32,24.15l3.16,133.56c.32,13.6-10.54,25-24.15,25.32l-217.65,5.15c-13.6.32-24.99-10.54-25.32-24.15l-3.16-133.56c-.32-13.6,10.54-25,24.15-25.32l31.26-.74c-.17-1.09-.27-2.21-.3-3.34l-.5-21.25c-.17-7,2.54-13.43,7.03-18.14,4.49-4.71,10.78-7.72,17.79-7.88l104.72-2.48c7-.17,13.43,2.54,18.14,7.03,4.71,4.49,7.72,10.78,7.88,17.79l.5,21.25c.03,1.13-.02,2.25-.14,3.35l31.26-.74h0Zm-161.79-21.92c-.3,0-.58.15-.79.36-.21.22-.33.5-.33.8l.5,21.25c0,.3.15.58.36.79.22.21.5.33.8.32l104.72-2.48c.3,0,.58-.15.79-.36.21-.22.33-.5.33-.8l-.5-21.25c0-.3-.15-.58-.36-.79-.22-.21-.5-.33-.8-.32l-104.72,2.48h0Z" fill="#211e25" fill-rule="evenodd"/><path d="m255.64,699.26c-2.21-8.48,3.93-15.88,10.72-17.44,8.53-1.96,15.76,3.64,17.46,10.71,2.06,8.59-3.73,15.95-10.8,17.57-8.69,1.99-15.52-3.68-17.38-10.84h0Zm9.65-33.39l-3.33-7.42-14.43,6.26,3.17,7.48c-.49.68-2.2,2.03-2.82,2.69-.65.68-1.9,2.06-2.36,2.85-2.02-.11-5.82-2.66-7.84-2.71l-5.63,14.6,7.45,3.02c.08,1.19-.12,2.41-.1,3.66.02,1.37.24,2.72.28,4.09l-7.38,3.2c.16.86,5.81,13.86,6.3,14.55l7.45-3.17c.87.84,1.73,1.96,2.62,2.81.87.83,2.23,1.8,2.96,2.58l-2.89,7.6,14.68,5.69,2.86-7.41c1.27-.18,2.59.09,3.88.06,1.37-.04,2.71-.23,4.05-.28l3.13,7.36c2.77-.58,11.04-5.09,14.51-6.11-.34-2.21-2.61-5.43-3.08-7.71.97-.77,1.94-1.63,2.88-2.6.79-.82,1.67-2.22,2.54-2.81,2.15.41,5.49,2.54,7.64,2.78.23-1.06.99-2.58,1.4-3.67.84-2.22,4-9.71,4.13-10.89-.95-.71-6.08-2.61-7.34-2.96-.08-1.29.11-2.51.09-3.78-.03-1.41-.21-2.76-.3-4.15,1.69-.65,6.3-2.51,7.39-3.36l-6.18-14.29c-1.98.25-5.35,2.58-7.72,3.08-.48-.78-1.78-2.12-2.49-2.79-.98-.94-2.29-1.85-2.83-2.53.17-1.89,2.25-5.45,2.73-7.55-.94-.72-8.78-3.59-10.92-4.42-1.21-.47-2.5-1.14-3.59-1.37l-.54.92c-.86,2.06-1.44,4.19-2.52,6.45-1.18.23-2.58-.06-3.86-.03-1.34.03-2.72.26-4,.26h0Z" fill="#f1f1f1" fill-rule="evenodd"/><path d="m308.53,658.82c-1.37-5.26,2.44-9.86,6.66-10.82,5.29-1.21,9.78,2.26,10.83,6.65,1.28,5.33-2.31,9.89-6.7,10.9-5.39,1.24-9.63-2.28-10.78-6.72h0Zm5.99-20.72l-2.07-4.6-8.96,3.89,1.97,4.64c-.31.42-1.36,1.26-1.75,1.67-.4.42-1.18,1.28-1.46,1.77-1.25-.07-3.61-1.65-4.86-1.68l-3.49,9.06,4.62,1.87c.05.74-.08,1.5-.06,2.27.01.85.15,1.69.17,2.54l-4.58,1.99c.1.53,3.6,8.6,3.91,9.03l4.62-1.97c.54.52,1.07,1.22,1.62,1.74.54.51,1.38,1.11,1.84,1.6l-1.79,4.71,9.11,3.53,1.77-4.6c.79-.11,1.61.06,2.41.04.85-.02,1.68-.15,2.52-.17l1.94,4.56c1.72-.36,6.85-3.16,9.01-3.79-.21-1.37-1.62-3.37-1.91-4.78.6-.48,1.2-1.01,1.79-1.62.49-.51,1.04-1.38,1.57-1.74,1.34.25,3.4,1.58,4.74,1.73.14-.66.61-1.6.87-2.27.52-1.38,2.48-6.03,2.56-6.76-.59-.44-3.77-1.62-4.55-1.84-.05-.8.07-1.56.05-2.34-.02-.87-.13-1.71-.18-2.57,1.05-.4,3.91-1.56,4.59-2.08l-3.83-8.86c-1.23.15-3.32,1.6-4.79,1.91-.3-.48-1.11-1.31-1.54-1.73-.61-.58-1.42-1.15-1.76-1.57.1-1.17,1.4-3.38,1.7-4.68-.58-.45-5.45-2.23-6.78-2.74-.75-.29-1.55-.7-2.23-.85l-.34.57c-.53,1.28-.89,2.6-1.56,4-.74.14-1.6-.04-2.4-.02-.83.02-1.69.16-2.48.16h0Z" fill="#f1f1f1" fill-rule="evenodd"/></svg>