<?xml version="1.0" encoding="UTF-8"?><svg id="a" xmlns="http://www.w3.org/2000/svg" width="800" height="800" viewBox="0 0 800 800"><polygon points="-151.07 -126.53 1082.63 -126.53 1082.63 987.56 -151.07 987.56 -151.07 -126.53 -151.07 -126.53" fill="#56aab7" fill-rule="evenodd"/><path d="m111.69,450.38h253.61c24.29,0,44.16,19.87,44.16,44.16h0c0,24.29-19.87,44.16-44.16,44.16H111.69c-24.29,0-44.16-19.87-44.16-44.16h0c0-24.29,19.87-44.16,44.16-44.16h0Z" fill="#c7c8cc" fill-rule="evenodd"/><path d="m-52.75,629.9c-75.01,110.07-65.7,194.51,39.87,291.16,0,0,55.47-70.44,44.64-152.71-7.67-58.31-19.14-88.61-25.17-101.32l-.03.07c-26.02,2.62-43.53-17.13-49.14-33.43l-10.18-3.79h0Z" fill="#eceef1" fill-rule="evenodd"/><path d="m-52.75,629.9c-4.16,24.57,31.93,57.57,64.61,49.78-1.58-4.25-3.22-8.49-4.82-12.74-23.47,2.55-41.69-11.76-49.61-33.26l-10.18-3.79h0Z" fill="#c7c8cc" fill-rule="evenodd"/><path d="m-28.75,583.82l-13.83,49.87c5.61,16.29,23.11,36.05,49.14,33.43l8.77-22.41-44.08-60.88h0Z" fill="#151a2f" fill-rule="evenodd"/><path d="m528.63,627.93c82.7,104.41,79.47,189.31-18.91,293.27,0,0-60.37-66.28-55.46-149.12,3.48-58.71,12.74-89.75,17.85-102.86l.03.07c26.15.75,42.19-20.21,46.62-36.86l9.88-4.51h0Z" fill="#eceef1" fill-rule="evenodd"/><path d="m528.63,627.93c5.91,24.21-27.72,59.71-60.88,54.28,1.27-4.36,2.61-8.7,3.9-13.05,23.59.87,40.74-14.71,47.1-36.73l9.88-4.51h0Z" fill="#c7c8cc" fill-rule="evenodd"/><path d="m501.39,583.68l17.36,48.75c-4.43,16.65-20.47,37.61-46.62,36.86l-10.35-21.73,39.61-63.88h0Z" fill="#151a2f" fill-rule="evenodd"/><path d="m43,527.96h397.27c41.03,0,74.6,33.57,74.6,74.59h0c0,41.03-33.57,74.6-74.6,74.6H43c-41.03,0-74.6-33.57-74.6-74.6h0c0-41.03,33.57-74.59,74.6-74.59h0Z" fill="#c7c8cc" fill-rule="evenodd"/><path d="m79.01,250.38h325.26c41.03,0,74.59,33.57,74.59,74.6h0c0,41.03-33.57,74.59-74.59,74.59H79.01c-41.03,0-74.6-33.57-74.6-74.59h0c0-41.03,33.57-74.6,74.6-74.6h0Z" fill="#151a2f" fill-rule="evenodd"/><path d="m19.58,513.75h444.13v237.21c0,122.14-99.93,222.06-222.06,222.06h0c-122.14,0-222.06-99.93-222.06-222.06v-237.21h0Z" fill="#eceef1" fill-rule="evenodd" stroke="#c7c8cc" stroke-miterlimit="22.93" stroke-width=".22"/><path d="m19.58,482.21h444.13v-107.25c0-122.14-99.93-222.06-222.06-222.06h0c-122.14,0-222.06,99.93-222.06,222.06v107.25h0Z" fill="#eceef1" fill-rule="evenodd"/><path d="m145.12,246.27h193.05c21.51,0,39.11,17.6,39.11,39.11v99.68c0,21.51-17.6,39.11-39.11,39.11h-193.05c-21.51,0-39.11-17.6-39.11-39.11v-99.68c0-21.51,17.6-39.11,39.11-39.11h0Z" fill="#151a2f" fill-rule="evenodd"/><path d="m360.26,187.48c-10.34,9.47-24.09,15.27-39.13,15.27h-158.98c-15.04,0-28.79-5.8-39.13-15.27,34.37-21.87,75.08-34.58,118.61-34.58h0c43.53,0,84.24,12.7,118.61,34.58h0Z" fill="#c7c8cc" fill-rule="evenodd"/><path d="m165.65,568.34h151.99c32.8,0,59.64,26.84,59.64,59.64v88.61c0,74.6-61.04,135.64-135.64,135.64h0c-74.6,0-135.64-61.04-135.64-135.64v-88.61c0-32.8,26.84-59.64,59.64-59.64h0Z" fill="#151a2f" fill-rule="evenodd"/><path d="m425.44,250.73v-111.67h-2.84v107.58c.96,1.35,1.91,2.71,2.84,4.09h0Z" fill="#c7c8cc" fill-rule="evenodd"/><path d="m424.02,111.46c10.1,0,18.3,8.19,18.3,18.3s-8.19,18.3-18.3,18.3-18.3-8.19-18.3-18.3,8.19-18.3,18.3-18.3h0Z" fill="#151a2f" fill-rule="evenodd"/><path d="m300.86,739.86c-3.71,14.28-17.33,25.58-34.66,21.61-14.11-3.23-25.65-17.89-21.54-35.03,3.38-14.1,17.81-25.26,34.81-21.36,13.55,3.11,25.79,17.87,21.39,34.78h0Zm-19.24-66.59c-2.54,0-5.3-.47-7.97-.53-2.55-.06-5.33.53-7.7.07-2.16-4.51-3.32-8.76-5.03-12.87l-1.08-1.83c-2.19.46-4.76,1.8-7.17,2.73-4.27,1.65-19.9,7.37-21.78,8.82.96,4.18,5.12,11.28,5.45,15.05-1.07,1.34-3.69,3.17-5.64,5.04-1.4,1.35-4,4.02-4.96,5.57-4.72-1-11.43-5.65-15.39-6.15l-12.32,28.49c2.18,1.7,11.38,5.41,14.75,6.7-.18,2.78-.53,5.47-.59,8.27-.05,2.53.34,4.97.17,7.53-2.51.71-12.75,4.5-14.64,5.91.27,2.35,6.57,17.3,8.24,21.73.82,2.17,2.33,5.2,2.79,7.31,4.3-.49,10.94-4.73,15.24-5.55,1.73,1.17,3.47,3.98,5.06,5.6,1.89,1.94,3.81,3.66,5.75,5.19-.94,4.54-5.47,10.95-6.14,15.37,6.92,2.04,23.43,11.03,28.94,12.18l6.25-14.67c2.67.09,5.35.48,8.08.55,2.56.07,5.2-.47,7.73-.12l5.7,14.77,29.27-11.34-5.76-15.15c1.47-1.57,4.18-3.5,5.91-5.15,1.77-1.69,3.48-3.92,5.22-5.6l14.85,6.32c.98-1.39,12.23-27.3,12.56-29.02l-14.72-6.39c.07-2.72.51-5.42.55-8.15.04-2.49-.36-4.94-.2-7.3l14.86-6.01-11.23-29.11c-4.03.11-11.6,5.18-15.63,5.41-.91-1.58-3.41-4.34-4.7-5.69-1.24-1.3-4.65-4-5.63-5.36l6.33-14.93-28.79-12.49-6.65,14.79h0Z" fill="#eceef1" fill-rule="evenodd"/><path d="m195.38,659.22c-2.3,8.86-10.76,15.87-21.51,13.41-8.75-2.01-15.91-11.1-13.37-21.74,2.1-8.75,11.05-15.68,21.6-13.25,8.41,1.93,16,11.09,13.27,21.58h0Zm-11.94-41.32c-1.58,0-3.29-.29-4.94-.33-1.58-.04-3.31.33-4.78.04-1.34-2.8-2.06-5.44-3.12-7.98l-.67-1.13c-1.36.29-2.95,1.12-4.45,1.69-2.65,1.02-12.35,4.58-13.52,5.47.59,2.59,3.18,7,3.38,9.34-.66.83-2.29,1.96-3.5,3.12-.87.84-2.48,2.5-3.08,3.46-2.93-.62-7.09-3.51-9.55-3.81l-7.64,17.68c1.35,1.06,7.06,3.35,9.15,4.16-.11,1.73-.33,3.39-.37,5.13-.03,1.57.21,3.08.11,4.67-1.55.44-7.91,2.79-9.08,3.67.17,1.46,4.08,10.73,5.11,13.48.51,1.35,1.45,3.22,1.73,4.54,2.67-.3,6.79-2.94,9.46-3.44,1.07.73,2.15,2.47,3.14,3.48,1.17,1.2,2.37,2.27,3.57,3.22-.58,2.81-3.39,6.79-3.81,9.53,4.3,1.27,14.54,6.85,17.96,7.56l3.88-9.1c1.66.05,3.32.3,5.02.34,1.59.04,3.23-.29,4.8-.07l3.54,9.17,18.16-7.04-3.57-9.4c.91-.98,2.59-2.17,3.67-3.2,1.1-1.05,2.16-2.43,3.24-3.48l9.21,3.92c.61-.86,7.59-16.94,7.79-18.01l-9.13-3.96c.04-1.69.31-3.36.34-5.06.03-1.54-.22-3.06-.12-4.53l9.22-3.73-6.97-18.06c-2.5.07-7.2,3.22-9.7,3.36-.56-.98-2.12-2.69-2.92-3.53-.77-.81-2.88-2.48-3.49-3.32l3.93-9.26-17.86-7.75-4.12,9.18h0Z" fill="#eceef1" fill-rule="evenodd"/><path d="m129.37,340.61c7.27-5.99,18.54-13.43,33.34-15.73,27.88-4.32,37.53,14.36,66.86,14.63,30.53.28,36.97-19.81,67.14-20.61,24-.64,43.89,11.44,56.91,21.7" fill-rule="evenodd" stroke="#62faeb" stroke-miterlimit="10" stroke-width="3"/></svg>